FILE "Sotsugyou 2^ Neo Generation FX (1994)(NEC Home Electronics)(JP)[FXNHE401].img" BINARY
  TRACK 01 AUDIO
    INDEX 01 00:00:00
  TRACK 02 MODE1/2352
    PREGAP 00:03:00
    INDEX 01 02:56:56
  TRACK 03 AUDIO
    PREGAP 00:02:00
    INDEX 01 46:26:24
  TRACK 04 AUDIO
    INDEX 01 47:49:37
  TRACK 05 AUDIO
    INDEX 01 50:27:12
  TRACK 06 AUDIO
    INDEX 01 53:07:13
  TRACK 07 AUDIO
    INDEX 01 53:55:45
